<svg width="500" height="161" viewBox="0 0 500 161" fill="none" xmlns="http://www.w3.org/2000/svg">
<path d="M76.521 22.271V0.604492H0V119.833H76.6665V98H24.708V69.2915H69.6665V48.104H24.708V22.25L76.521 22.271ZM121.563 160.479L174.313 37.4165H148.479L129.688 86.5205L110.729 37.4165H85.0205L117.229 112.5L96.1875 160.479H121.563ZM259.584 86.0415V76.7915C259.584 51.125 243.958 35.833 220.208 35.833C195.646 35.833 178.271 52.083 178.271 78.708C178.271 105.167 195.646 121.583 220.833 121.583C240.125 121.583 255.917 110.416 258.771 94.812L235.354 93.687C233.584 99.416 228.333 102.771 220.208 102.771C209.687 102.771 203.458 96.229 202.979 86.0415H259.584ZM220.041 54C230.562 54 235.667 60.5415 236.146 70.5835H202.979C203.625 60.0625 210.166 54 220.041 54ZM355 22.25V0.583496H278.5V119.812H355.166V97.979H303.187V69.2705H348.146V48.083H303.187V22.2495L355 22.25ZM468.75 35.7915C456.312 35.7915 448.188 41.375 443.417 48.875C438 40.4165 428.896 35.8125 417.583 35.8125C406.271 35.8125 399.583 40.104 395.916 45.854V37.3955H373.917V119.812H397.188V74.062C397.188 64.187 402.771 57.4785 412 57.4785C420.458 57.4785 425.396 63.3745 425.396 73.895V119.812H448.667V71.2075C449.625 62.916 454.73 57.499 463.021 57.499C471.938 57.499 476.729 63.395 476.729 73.9155V119.832H500V69.2905C500 48.4155 487.563 35.832 468.75 35.7905L468.75 35.7915Z" fill="white"/>
</svg>
