<!-- Generated by IcoMoon.io -->
<svg version="1.1" xmlns="http://www.w3.org/2000/svg" width="1024" height="1024" viewBox="0 0 1024 1024">
<title></title>
<g id="icomoon-ignore">
</g>
<path fill="#000" d="M156.715 391.723v-44.373h-156.715v244.181h157.013v-44.715h-106.411v-58.795h92.075v-43.392h-92.075v-52.949zM248.96 674.773l108.032-252.032h-52.907l-38.485 100.565-38.827-100.565h-52.651l65.963 153.771-43.093 98.261zM531.627 522.325v-18.944c0-52.565-32-83.883-80.64-83.883-50.304 0-85.888 33.28-85.888 87.808 0 54.187 35.584 87.808 87.168 87.808 39.509 0 71.851-22.869 77.696-54.827l-47.957-2.304c-3.627 11.733-14.379 18.603-31.019 18.603-21.547 0-34.304-13.397-35.285-34.261zM450.645 456.704c21.547 0 32 13.397 32.981 33.963h-67.925c1.323-21.547 14.72-33.963 34.944-33.963zM727.040 391.68v-44.373h-156.672v244.181h157.013v-44.715h-106.453v-58.795h92.075v-43.392h-92.075v-52.907zM960 419.413c-25.472 0-42.112 11.435-51.883 26.795-11.093-17.323-29.739-26.752-52.907-26.752s-36.864 8.789-44.373 20.565v-17.323h-45.056v168.789h47.659v-93.696c0-20.224 11.435-33.963 30.336-33.963 17.323 0 27.435 12.075 27.435 33.621v94.037h47.659v-99.541c1.963-16.981 12.416-28.075 29.397-28.075 18.261 0 28.075 12.075 28.075 33.621v94.037h47.659v-103.509c0-42.752-25.472-68.523-64-68.608z"></path>
</svg>
